<svg xmlns="http://www.w3.org/2000/svg" viewBox="0 0 100 100" width="100px" height="100px"><path fill="#78cdd4" d="M30.807 17.307A14.5 14 0 1 0 30.807 45.307A14.5 14 0 1 0 30.807 17.307Z"/><path fill="#1f212b" d="M30.807,46.307c-8.547,0-15.5-6.729-15.5-15s6.953-15,15.5-15s15.5,6.729,15.5,15S39.354,46.307,30.807,46.307z M30.807,18.307c-7.444,0-13.5,5.832-13.5,13s6.056,13,13.5,13s13.5-5.832,13.5-13S38.251,18.307,30.807,18.307z"/><path fill="#78cdd4" d="M40.404,31.268c0,5.469-4.433,9.902-9.902,9.902S20.6,36.736,20.6,31.268s4.433-9.902,9.902-9.902"/><path fill="#1f212b" d="M30.502,41.669c-5.736,0-10.402-4.666-10.402-10.402s4.666-10.402,10.402-10.402c0.276,0,0.5,0.224,0.5,0.5s-0.224,0.5-0.5,0.5c-5.184,0-9.402,4.218-9.402,9.402s4.218,9.402,9.402,9.402s9.401-4.218,9.401-9.402c0-0.276,0.224-0.5,0.5-0.5s0.5,0.224,0.5,0.5C40.904,37.003,36.238,41.669,30.502,41.669z"/><path fill="#78cdd4" d="M34.356,22.144c1.621,0.686,3.021,1.79,4.065,3.178"/><path fill="#1f212b" d="M38.422,25.822c-0.152,0-0.302-0.069-0.4-0.199c-1-1.33-2.335-2.373-3.86-3.019c-0.254-0.107-0.373-0.401-0.266-0.655c0.107-0.255,0.402-0.373,0.655-0.266c1.688,0.714,3.164,1.868,4.27,3.338c0.166,0.221,0.122,0.534-0.099,0.7C38.632,25.79,38.526,25.822,38.422,25.822z"/><path fill="#b3e1e6" d="M32.807 55.807L30.807 55.807 30.807 45.807 34.807 45.807 34.807 53.807"/><path fill="#1f212b" d="M32.807,56.307h-2c-0.276,0-0.5-0.224-0.5-0.5v-10c0-0.276,0.224-0.5,0.5-0.5h4c0.276,0,0.5,0.224,0.5,0.5v8c0,0.276-0.224,0.5-0.5,0.5s-0.5-0.224-0.5-0.5v-7.5h-3v9h1.5c0.276,0,0.5,0.224,0.5,0.5S33.083,56.307,32.807,56.307z"/><path fill="#b3e1e6" d="M50.754 36.931L58.213 41.238 56.056 44.973 44.339 37.934"/><path fill="#1f212b" d="M56.056,45.474c-0.09,0-0.179-0.024-0.257-0.071l-11.717-7.039c-0.237-0.142-0.313-0.45-0.171-0.686s0.449-0.313,0.686-0.171l11.281,6.777l1.652-2.862l-7.026-4.057c-0.239-0.138-0.321-0.444-0.183-0.683c0.138-0.24,0.443-0.322,0.683-0.183l7.459,4.307c0.239,0.138,0.321,0.444,0.183,0.683l-2.157,3.736c-0.067,0.116-0.178,0.201-0.308,0.234C56.14,45.468,56.098,45.474,56.056,45.474z"/><path fill="#b3e1e6" d="M49.122 64.216L57.406 59.433 55.249 55.698 44.339 62.737"/><path fill="#1f212b" d="M49.123,64.716c-0.173,0-0.341-0.089-0.434-0.25c-0.138-0.239-0.056-0.545,0.183-0.683l7.851-4.533l-1.644-2.847L44.61,63.157c-0.233,0.15-0.542,0.083-0.691-0.149c-0.15-0.232-0.083-0.542,0.149-0.691l10.911-7.039c0.115-0.074,0.253-0.1,0.389-0.066c0.133,0.032,0.247,0.117,0.315,0.236l2.157,3.735c0.066,0.115,0.084,0.251,0.05,0.379s-0.118,0.237-0.233,0.304l-8.284,4.783C49.293,64.694,49.207,64.716,49.123,64.716z"/><path fill="#78cdd4" d="M30.807 55.307A14.5 14 0 1 0 30.807 83.307A14.5 14 0 1 0 30.807 55.307Z"/><path fill="#1f212b" d="M30.807,84.307c-8.547,0-15.5-6.729-15.5-15s6.953-15,15.5-15s15.5,6.729,15.5,15S39.354,84.307,30.807,84.307z M30.807,56.307c-7.444,0-13.5,5.832-13.5,13s6.056,13,13.5,13s13.5-5.832,13.5-13S38.251,56.307,30.807,56.307z"/><path fill="#78cdd4" d="M40.404,69.01c0,5.469-4.433,9.902-9.902,9.902S20.6,74.479,20.6,69.01c0-5.469,4.433-9.902,9.902-9.902"/><path fill="#1f212b" d="M30.502,79.412c-5.736,0-10.402-4.666-10.402-10.402s4.666-10.402,10.402-10.402c0.276,0,0.5,0.224,0.5,0.5s-0.224,0.5-0.5,0.5c-5.184,0-9.402,4.218-9.402,9.402s4.218,9.402,9.402,9.402s9.401-4.218,9.401-9.402c0-0.276,0.224-0.5,0.5-0.5s0.5,0.224,0.5,0.5C40.904,74.746,36.238,79.412,30.502,79.412z"/><path fill="#78cdd4" d="M34.356,59.887c1.621,0.686,3.021,1.79,4.065,3.178"/><path fill="#1f212b" d="M38.422,63.565c-0.152,0-0.302-0.069-0.4-0.199c-1-1.33-2.335-2.373-3.86-3.019c-0.254-0.107-0.373-0.401-0.266-0.655c0.107-0.255,0.402-0.373,0.655-0.266c1.688,0.714,3.164,1.868,4.27,3.338c0.166,0.221,0.122,0.534-0.099,0.7C38.632,63.532,38.526,63.565,38.422,63.565z"/><path fill="#78cdd4" d="M69.807 36.307A14.5 14 0 1 0 69.807 64.307A14.5 14 0 1 0 69.807 36.307Z"/><path fill="#1f212b" d="M69.807,65.307c-8.547,0-15.5-6.729-15.5-15s6.953-15,15.5-15s15.5,6.729,15.5,15S78.354,65.307,69.807,65.307z M69.807,37.307c-7.444,0-13.5,5.832-13.5,13s6.056,13,13.5,13s13.5-5.832,13.5-13S77.251,37.307,69.807,37.307z"/><path fill="#78cdd4" d="M79.764,50.678c0,5.469-4.433,9.902-9.902,9.902c-5.469,0-9.902-4.433-9.902-9.902s4.433-9.902,9.902-9.902"/><path fill="#1f212b" d="M69.862,61.08c-5.736,0-10.402-4.666-10.402-10.402s4.666-10.402,10.402-10.402c0.276,0,0.5,0.224,0.5,0.5s-0.224,0.5-0.5,0.5c-5.184,0-9.402,4.218-9.402,9.402s4.218,9.402,9.402,9.402s9.402-4.218,9.402-9.402c0-0.276,0.224-0.5,0.5-0.5s0.5,0.224,0.5,0.5C80.264,56.414,75.598,61.08,69.862,61.08z"/><path fill="#78cdd4" d="M73.717,41.555c1.621,0.686,3.021,1.79,4.065,3.178"/><path fill="#1f212b" d="M77.782,45.233c-0.152,0-0.302-0.069-0.4-0.2c-1-1.329-2.334-2.373-3.86-3.018c-0.254-0.107-0.373-0.401-0.266-0.655c0.107-0.255,0.402-0.373,0.655-0.266c1.688,0.714,3.165,1.868,4.27,3.338c0.166,0.221,0.122,0.534-0.099,0.7C77.992,45.2,77.887,45.233,77.782,45.233z"/></svg>